<svg xmlns="http://www.w3.org/2000/svg" viewBox="0 0 22 24">
    <g fill="#333" fill-rule="evenodd">
        <path d="M11 6h7v2h-7zM11 11h7v2h-7zM11 16h7v2h-7z"></path>
        <path d="M2 24H0V0h22v24H2zm0-2h18V2H2v20z"></path>
        <path fill-rule="nonzero" d="M7.948 4.238l1.414 1.414L6.01 9.003 3.605 6.83l1.341-1.484.995.899zM7.672 9.293l1.414 1.414-3.351 3.351-2.406-2.173L4.671 10.4l.994.899zM6.37 16.937l-1.377.035.672-.672.705.637zm1.302-2.644l1.414 1.414-3.351 3.351-2.406-2.173L4.671 15.4l.994.899 2.007-2.007z"></path>
    </g>
</svg>