<svg xmlns="http://www.w3.org/2000/svg" viewBox="0 0 43 45">
    <g fill="#333" fill-rule="nonzero">
        <path d="M42.702 8.935l-2.398 2.398-8.485-8.485L34.217.45z"></path>
        <path d="M34.217 17.115l-2.398-2.398 8.485-8.485 2.398 2.398z"></path>
        <path d="M3.696 24.043H.304V13.87a6.783 6.783 0 0 1 6.783-6.783H41v3.391H7.087a3.391 3.391 0 0 0-3.391 3.392v10.173z"></path>
        <g>
            <path d="M11.18 41.848l-2.397 2.398L.298 35.76l2.398-2.398z"></path>
            <path d="M2.696 38.463L.298 36.065l8.485-8.485 2.398 2.398z"></path>
            <path d="M39.304 20.652h3.392v10.174a6.783 6.783 0 0 1-6.783 6.783H2v-3.392h33.913a3.391 3.391 0 0 0 3.391-3.39V20.651z"></path>
        </g>
    </g>
</svg>