<svg xmlns="http://www.w3.org/2000/svg" viewBox="0 0 55 46">
    <g fill="#333" fill-rule="nonzero">
        <path d="M49.357 22h-3.643c0-10.125-8.155-18.333-18.214-18.333C17.44 3.667 9.286 11.875 9.286 22H5.643c0-12.15 9.786-22 21.857-22s21.857 9.85 21.857 22z"></path>
        <path d="M5.643 21.083h3.643v7.334H5.643zM45.714 21.083h3.643v7.334h-3.643z"></path>
        <path d="M12.929 29.333H7.464c-2.012 0-3.643 1.642-3.643 3.667v5.5c0 2.025 1.631 3.667 3.643 3.667h5.465V29.333zm-5.465-3.666h9.107v20.166H7.464C3.44 45.833.18 42.55.18 38.5V33c0-4.05 3.261-7.333 7.285-7.333zM42.071 29.333v12.834h5.465c2.012 0 3.643-1.642 3.643-3.667V33c0-2.025-1.631-3.667-3.643-3.667H42.07zm5.465-3.666c4.024 0 7.285 3.283 7.285 7.333v5.5c0 4.05-3.261 7.333-7.285 7.333h-9.107V25.667h9.107z"></path>
    </g>
</svg>