<svg xmlns="http://www.w3.org/2000/svg" viewBox="0 0 32 44">
    <g fill="#333" fill-rule="nonzero">
        <path d="M11.952 4.989L4.065 19.417l4.03 8.045h15.81l4.03-8.045L20.048 4.99v11.973A4.043 4.043 0 0 1 16 21a4.043 4.043 0 0 1-4.048-4.038V4.989zm1.194-2.183l-.178-.177-1.016.602h.962l.232-.425zm2.044 14.156a.809.809 0 0 0 1.62 0V0h4.199l10.58 19.352-5.684 11.34H6.095L.412 19.352 10.992 0h4.198v16.962zM28.143 40.385v-1.616c0-1.784-1.45-3.23-3.238-3.23H7.095a3.234 3.234 0 0 0-3.238 3.23v1.616h24.286zM7.095 32.308h17.81c3.576 0 6.476 2.893 6.476 6.461v4.846H.619V38.77c0-3.568 2.9-6.461 6.476-6.461z"></path>
    </g>
</svg>