<svg xmlns="http://www.w3.org/2000/svg" viewBox="0 0 66 35">
    <g fill="#333" fill-rule="evenodd">
        <path fill-rule="nonzero" d="M7.167 3.722a3.444 3.444 0 0 0-3.445 3.445v20.666a3.444 3.444 0 0 0 3.445 3.445H41.61a3.444 3.444 0 0 0 3.445-3.445V7.167a3.444 3.444 0 0 0-3.445-3.445H7.167zm0-3.444H41.61A6.889 6.889 0 0 1 48.5 7.167v20.666a6.889 6.889 0 0 1-6.889 6.89H7.167a6.889 6.889 0 0 1-6.89-6.89V7.167a6.889 6.889 0 0 1 6.89-6.89z"></path>
        <path fill-rule="nonzero" d="M49.43 11.784c-.571.295-.93.885-.93 1.529v8.374c0 .644.359 1.233.93 1.53l10.334 5.35a1.722 1.722 0 0 0 2.514-1.53V7.963a1.722 1.722 0 0 0-2.514-1.53L49.43 11.785zm8.75-8.41a5.167 5.167 0 0 1 7.542 4.588v19.076a5.167 5.167 0 0 1-7.542 4.588l-10.334-5.35a5.167 5.167 0 0 1-2.79-4.589v-8.374c0-1.93 1.076-3.7 2.79-4.588L58.18 3.374z"></path>
        <path d="M8.889 8.889h18.944v3.444H8.889z"></path>
    </g>
</svg>